<?xml version="1.0" encoding="UTF-8"?>
<svg xmlns="http://www.w3.org/2000/svg" xmlns:xlink="http://www.w3.org/1999/xlink" width="1024px" height="1024px" viewBox="0 0 1024 1024" version="1.1">
<g id="surface1">
<path style=" stroke:none;fill-rule:nonzero;fill:rgb(0%,0%,0%);fill-opacity:1;" d="M 634.878906 108.542969 C 588.800781 129.023438 565.246094 150.527344 541.695312 196.609375 C 515.070312 248.832031 517.121094 267.265625 552.960938 302.078125 C 570.367188 318.464844 582.65625 334.847656 581.632812 337.921875 C 579.585938 340.992188 524.289062 395.265625 458.753906 458.753906 L 339.96875 575.488281 L 301.054688 532.480469 C 266.238281 493.566406 259.070312 490.496094 226.304688 496.640625 C 169.984375 506.878906 117.761719 545.792969 93.183594 595.96875 C 57.34375 670.71875 61.441406 683.007812 172.03125 818.175781 C 226.304688 885.761719 279.550781 944.128906 288.769531 947.199219 C 322.558594 959.488281 391.167969 928.769531 441.34375 878.59375 C 507.902344 812.03125 513.023438 788.480469 471.039062 731.136719 C 452.609375 705.535156 439.296875 684.03125 441.34375 683.007812 C 443.390625 681.984375 498.6875 628.734375 564.222656 565.246094 L 681.984375 450.558594 L 727.039062 492.542969 C 763.902344 527.359375 776.191406 533.503906 800.769531 528.382812 C 866.304688 515.070312 951.296875 432.128906 966.65625 365.566406 C 972.800781 339.96875 962.558594 325.632812 869.375 227.328125 C 812.03125 166.910156 757.761719 111.617188 749.566406 104.449219 C 728.0625 88.0625 678.910156 89.089844 634.878906 108.542969 Z M 711.679688 153.601562 C 707.585938 164.863281 709.632812 174.078125 715.777344 174.078125 C 721.921875 174.078125 727.039062 166.910156 727.039062 157.695312 C 727.039062 149.503906 731.136719 144.382812 736.257812 147.457031 C 741.375 150.527344 743.425781 162.816406 740.351562 174.078125 C 737.28125 185.34375 740.351562 194.558594 746.496094 194.558594 C 752.640625 194.558594 757.761719 189.441406 757.761719 183.296875 C 757.761719 175.105469 762.878906 176.128906 773.121094 184.320312 C 783.359375 192.511719 786.433594 205.824219 782.335938 218.113281 C 777.214844 234.496094 779.265625 237.566406 793.601562 231.425781 C 806.910156 226.304688 826.367188 241.664062 870.398438 288.769531 C 935.9375 360.449219 936.960938 375.808594 882.6875 432.128906 C 852.992188 463.871094 839.679688 467.96875 839.679688 445.441406 C 839.679688 437.246094 835.585938 430.078125 829.441406 430.078125 C 824.320312 430.078125 819.199219 441.34375 819.199219 454.65625 C 819.199219 468.992188 815.105469 483.328125 808.960938 486.398438 C 802.816406 490.496094 798.71875 481.28125 798.71875 466.945312 C 798.71875 452.609375 794.625 440.320312 788.480469 440.320312 C 783.359375 440.320312 778.238281 449.535156 778.238281 461.824219 C 778.238281 473.089844 774.144531 479.230469 768 476.160156 C 762.878906 473.089844 760.832031 456.703125 764.929688 440.320312 C 768 420.863281 765.953125 409.601562 758.785156 409.601562 C 752.640625 409.601562 747.519531 418.816406 747.519531 431.105469 C 747.519531 442.367188 742.398438 448.511719 737.28125 445.441406 C 731.136719 442.367188 730.113281 428.03125 733.183594 413.695312 C 737.28125 399.359375 735.230469 389.121094 729.089844 389.121094 C 722.945312 389.121094 716.800781 396.289062 714.753906 405.503906 C 712.703125 417.792969 688.128906 395.265625 637.953125 336.894531 C 555.007812 240.640625 552.960938 231.425781 610.304688 176.128906 C 648.191406 140.289062 665.601562 135.167969 665.601562 158.71875 C 665.601562 166.910156 670.71875 174.078125 675.839844 174.078125 C 681.984375 174.078125 686.078125 164.863281 686.078125 153.601562 C 686.078125 142.335938 693.246094 133.121094 702.464844 133.121094 C 713.726562 133.121094 716.800781 139.265625 711.679688 153.601562 Z M 587.777344 484.351562 C 530.433594 538.625 516.097656 546.816406 514.046875 531.457031 C 512 521.214844 505.855469 512 499.710938 512 C 493.566406 512 491.519531 524.289062 494.59375 541.695312 C 498.6875 561.152344 495.617188 575.488281 486.398438 583.679688 C 474.113281 593.921875 471.039062 592.894531 471.039062 574.464844 C 471.039062 563.199219 465.921875 552.960938 459.777344 552.960938 C 452.609375 552.960938 450.558594 564.222656 453.632812 583.679688 C 457.726562 600.0625 455.679688 616.449219 450.558594 619.519531 C 444.414062 622.59375 440.320312 620.542969 440.320312 615.425781 C 440.320312 609.28125 435.199219 604.160156 429.054688 604.160156 C 422.910156 604.160156 420.863281 612.351562 424.960938 623.617188 C 434.175781 653.3125 410.625 660.480469 391.167969 633.855469 C 381.953125 620.542969 373.761719 607.230469 373.761719 604.160156 C 373.761719 589.824219 556.03125 427.007812 560.128906 437.246094 C 569.34375 462.847656 583.679688 449.535156 577.535156 421.886719 C 571.390625 395.265625 571.390625 395.265625 586.753906 414.71875 C 594.945312 425.984375 606.207031 432.128906 610.304688 428.03125 C 614.398438 423.9375 611.328125 413.695312 605.183594 405.503906 C 580.609375 375.808594 605.183594 364.542969 632.832031 392.191406 L 658.433594 418.816406 Z M 421.886719 734.207031 L 462.847656 787.457031 L 439.296875 820.222656 C 425.984375 838.65625 413.695312 847.871094 411.648438 841.726562 C 404.480469 820.222656 390.144531 828.414062 387.070312 857.089844 C 385.023438 871.425781 378.878906 885.761719 371.710938 887.808594 C 364.542969 890.878906 362.496094 884.734375 365.566406 871.425781 C 368.640625 859.136719 366.59375 849.921875 359.425781 849.921875 C 353.28125 849.921875 348.160156 861.183594 348.160156 874.496094 C 348.160156 888.832031 344.0625 903.167969 337.921875 906.238281 C 331.777344 909.3125 327.679688 905.214844 327.679688 897.023438 C 327.679688 887.808594 323.585938 880.640625 317.441406 880.640625 C 312.320312 880.640625 307.199219 888.832031 307.199219 898.046875 C 307.199219 911.359375 304.128906 912.382812 294.910156 903.167969 C 285.695312 893.953125 286.71875 887.808594 303.105469 876.542969 C 313.34375 868.351562 319.488281 858.113281 315.390625 854.015625 C 311.296875 849.921875 301.054688 852.992188 291.839844 860.160156 C 268.289062 879.617188 261.121094 865.28125 280.574219 837.632812 C 299.007812 811.007812 301.054688 798.71875 286.71875 798.71875 C 281.601562 798.71875 271.359375 809.984375 264.191406 823.296875 L 250.878906 848.894531 L 217.089844 807.9375 C 190.464844 777.214844 184.320312 760.832031 188.414062 742.398438 C 192.511719 728.0625 190.464844 716.800781 184.320312 716.800781 C 179.199219 716.800781 174.078125 720.894531 174.078125 727.039062 C 174.078125 732.160156 168.960938 737.28125 162.816406 737.28125 C 156.671875 737.28125 154.625 728.0625 158.71875 715.777344 C 164.863281 697.34375 162.816406 695.296875 144.382812 701.441406 C 118.785156 709.632812 116.734375 699.390625 140.289062 673.792969 C 149.503906 663.550781 153.601562 652.289062 149.503906 647.167969 C 145.40625 643.070312 135.167969 649.214844 126.976562 659.457031 C 113.664062 677.886719 112.640625 677.886719 112.640625 661.503906 C 112.640625 616.449219 161.792969 558.078125 210.945312 542.71875 C 238.59375 534.527344 245.761719 539.648438 311.296875 607.230469 C 350.207031 648.191406 400.382812 704.511719 421.886719 734.207031 Z M 421.886719 734.207031 "/>
</g>
</svg>
