<?xml version="1.0" standalone="no"?>
<!DOCTYPE svg PUBLIC "-//W3C//DTD SVG 20010904//EN"
 "http://www.w3.org/TR/2001/REC-SVG-20010904/DTD/svg10.dtd">
<svg version="1.0" xmlns="http://www.w3.org/2000/svg"
 width="512.000000pt" height="512.000000pt" viewBox="0 0 512.000000 512.000000"
 preserveAspectRatio="xMidYMid meet">

<g transform="translate(0.000000,512.000000) scale(0.100000,-0.100000)"
fill="#000000" stroke="none">
<path d="M3365 4947 c-70 -23 -87 -37 -247 -195 l-157 -155 -42 38 c-93 83
-215 104 -319 53 -68 -33 -375 -338 -411 -408 -33 -64 -33 -176 0 -240 15 -29
129 -151 319 -343 l297 -297 -543 -542 -542 -543 -297 297 c-333 331 -346 342
-464 342 -107 0 -147 -26 -340 -221 -195 -197 -214 -225 -214 -333 0 -85 19
-132 82 -201 l36 -40 -155 -157 c-183 -185 -203 -216 -203 -322 0 -108 18
-136 223 -342 l176 -178 -96 -97 c-121 -124 -142 -163 -143 -263 0 -104 26
-147 184 -303 153 -151 188 -172 291 -172 100 0 138 22 263 143 l97 96 178
-176 c206 -205 234 -223 342 -223 106 0 137 20 322 203 l157 155 40 -36 c69
-63 116 -82 201 -82 107 0 136 19 332 212 200 199 223 234 223 343 0 59 -6 85
-24 120 -15 29 -129 151 -319 343 l-297 297 543 542 542 543 297 -297 c192
-190 314 -304 343 -319 64 -33 176 -33 240 0 62 32 370 339 407 405 24 43 28
62 28 126 0 85 -20 132 -82 201 l-36 40 155 157 c183 185 203 216 203 322 0
108 -18 136 -223 342 l-176 178 96 97 c121 125 143 163 143 263 0 103 -21 138
-174 293 -150 152 -197 181 -300 181 -97 1 -145 -25 -263 -141 l-98 -97 -178
177 c-125 124 -191 182 -223 196 -60 27 -143 34 -194 18z m123 -161 c15 -8
315 -303 667 -655 l640 -641 0 -50 0 -50 -158 -157 -157 -158 -702 702 -703
703 140 141 c183 184 208 199 273 165z m880 -160 c15 -8 81 -69 147 -135 l120
-121 0 -50 c0 -50 0 -50 -98 -147 l-97 -98 -182 182 -183 183 80 81 c118 119
153 137 213 105z m-704 -965 l891 -891 0 -50 0 -50 -170 -169 c-173 -172 -198
-190 -252 -177 -19 5 -312 291 -918 897 l-890 889 0 50 0 50 165 166 c91 91
174 170 185 175 11 5 38 7 59 5 37 -4 89 -54 930 -895z m-559 -561 l180 -180
-543 -543 -542 -542 -182 183 -183 182 540 540 c297 297 542 540 545 540 3 0
86 -81 185 -180z m-2097 -314 c15 -8 423 -411 907 -895 l880 -881 0 -50 0 -50
-170 -169 c-173 -172 -198 -190 -253 -177 -18 5 -311 291 -917 897 l-890 889
0 50 0 50 155 156 c85 86 169 165 185 175 36 23 67 24 103 5z m337 -1446 l700
-700 -155 -154 c-157 -157 -184 -175 -237 -161 -19 4 -239 217 -678 656 l-650
649 0 50 0 50 155 155 c85 85 157 155 160 155 3 0 320 -315 705 -700z m-480
-480 l180 -180 -95 -94 c-97 -96 -128 -114 -177 -101 -17 4 -81 59 -158 135
l-130 129 0 51 c0 49 0 50 95 145 52 52 97 95 100 95 3 0 86 -81 185 -180z"/>
</g>
</svg>
